<?xml version="1.0" encoding="utf-8"?>
<!-- Generator: Adobe Illustrator 25.3.1, SVG Export Plug-In . SVG Version: 6.00 Build 0)  -->
<svg version="1.1" id="Capa_1" xmlns="http://www.w3.org/2000/svg" xmlns:xlink="http://www.w3.org/1999/xlink" x="0px" y="0px"
	 viewBox="0 0 821.53 350" style="enable-background:new 0 0 821.53 350;" xml:space="preserve">
<style type="text/css">
	.st0{fill:none;stroke:#95C11F;stroke-width:1.5977;stroke-miterlimit:10;}
	.st1{fill:none;stroke:#95C11F;stroke-width:1.5977;stroke-miterlimit:10;stroke-dasharray:2.8193,2.8193;}
	.st2{fill:#1E1E1C;}
	.st3{font-family:'BarlowSemiCondensed-Light';}
	.st4{font-size:19.6319px;}
	.st5{font-family:'BarlowSemiCondensed-Medium';}
	.st6{fill:#95C11F;}
	.st7{fill:#006633;}
	.st8{fill:#DEDDDD;}
</style>
<line class="st0" x1="94.2" y1="290.39" x2="766.84" y2="290.39"/>
<line class="st1" x1="94.2" y1="219.88" x2="767.29" y2="219.88"/>
<g>
	<text transform="matrix(1 0 0 1 38.6671 78.842)" class="st2 st3 st4">150 cm</text>
</g>
<g>
	<text transform="matrix(1 0 0 1 271.9889 140.6193)" class="st2 st5 st4">90 cm</text>
</g>
<g>
</g>
<g>
</g>
<g>
</g>
<g>
	<text transform="matrix(1 0 0 1 44.419 220.6281)" class="st2 st3 st4">50 cm</text>
</g>
<g>
	<text transform="matrix(1 0 0 1 53.3311 290.3947)" class="st2 st3 st4">0 cm</text>
</g>
<line class="st1" x1="94.2" y1="149.36" x2="767.29" y2="149.36"/>
<line class="st1" x1="94.2" y1="78.84" x2="767.29" y2="78.84"/>
<g>
	<text transform="matrix(1 0 0 1 38.0772 149.5558)" class="st2 st3 st4">100 cm</text>
</g>
<path class="st6" d="M690.22,222.68c0,0-0.65-1.29-1.75-1.38c-1.11-0.09-7.56,2.4-9.78,5.53c-2.21,3.14-4.06,8.21-6.55,10.05
	c-2.49,1.84-9.22,5.53-11.71,7.38c-2.49,1.84-10.05,5.53-10.98,7.1c-0.92,1.57-1.29,2.31-1.01,3.6s-0.09,4.15,1.75,6.27
	c1.84,2.12,2.4,3.5,3.69,4.06c1.29,0.55,2.12,1.03,3.81,1.08c1.07,0.03,1.61,0.02,1.87,0.01c0.12,0,0.22-0.09,0.25-0.21l0,0
	c0.05-0.22-0.08-0.45-0.3-0.5l-0.65-0.17l-0.02-0.13c-0.03-0.22-0.19-0.4-0.4-0.46l-0.95-0.28c0,0-2.07-0.67-2.45-1.37
	c-0.39-0.7-1.19-2.14-1.19-2.14v-0.62c0-0.19-0.07-0.37-0.18-0.51l-0.48-0.58c0,0-0.49-1.54-0.74-1.96s-0.21-2.49,0-2.73
	c0.21-0.25,3.36-1.97,4.48-2.72c1.12-0.75,6.76-2.92,6.76-2.92s4.87-2,6.55-2.49c1.68-0.49,4.34-1.16,5.81-2.03
	c1.47-0.88,4.27-3.43,4.27-3.43l0.46-0.46c0,0-0.91,2.91-1.75,6.8c-0.84,3.89-1.51,8.93-2.45,10.65c-0.95,1.72-2.35,5.88-2.45,8.13
	c-0.11,2.24-0.32,3.22-0.32,3.22s-2.8,1.23-2.87,3.05c-0.07,1.82,1.19,4.45,0.88,5.85c-0.32,1.4-2.31,5.22-2.31,6.02
	c0,0.3,0.03,0.56,0.08,0.77c0.07,0.33,0.35,0.56,0.69,0.56h0.08l0.21,1.12c0.06,0.31,0.36,0.5,0.66,0.43l0,0l0.11,0.1
	c0.23,0.22,0.61,0.17,0.78-0.1l0.05-0.08c0,0,0.6,0.14,0.63-0.21c0.04-0.35,1.82-3.85,2.21-3.89c0.39-0.04,1.33,0.04,0.98,0.6
	c-0.35,0.56-1.26,1.54-1.26,1.54v0.08c0,0.28,0.23,0.52,0.52,0.52h0.29c0,0,1.09-0.88,1.68-1.72c0.6-0.84,1.79-2.42,1.68-2.94
	c-0.11-0.53-0.91-1.61-0.67-2.28c0.25-0.67,3.33-3.61,3.71-4.9c0.39-1.3,1.05-5.5,1.54-6.23c0.49-0.74,1.68-2.8,2.38-2.8
	c0.7,0,2.66-7.4,3.43-5.86c0.77,1.54,0.84,11.85,2.24,14.19c1.4,2.35,1.93,2.1,1.54,3.78c-0.39,1.68-3.12,4.76-4.06,6.8
	c-0.95,2.03-0.84,3.99-0.42,4.9c0.42,0.91,0.07,1.93,0.07,1.93s0.18,0.77,0.53,0.77c0.35,0,1.12-0.39,1.65-0.98s1.93-0.7,1.93-0.7
	s1.47-0.6,2.35-0.39c0.88,0.21,1.4,1.16,2.1,1.16s0.7,0,0.7,0s0.8,0.26,0.87,0.05c0.04-0.12,0.18-0.19,0.29-0.23
	c0.08-0.03,0.14-0.11,0.14-0.2v-0.24c0-0.03,0.01-0.06,0.03-0.08l0.55-0.52c0.14-0.13,0.13-0.35-0.02-0.47l-0.84-0.65
	c0,0-1.47-0.6-1.09-1.19c0.39-0.6,2.98-4.55,3.47-7.15c0.49-2.59,0.28-4.45,0.6-4.55s0.42-0.35,0.39-0.88
	c-0.04-0.53-0.35-2.59-0.67-4.87s-1.12-6.2-2.45-7.67c-1.33-1.47-2.03-1.72-2.03-1.72s2.1-3.05,3.68-5.53s1.93-4.52,2.17-5.57
	c0.25-1.05,1.26-3.82,1.26-3.82s0.67,1.86,1.26,3.64s2.38,8.27,3.64,10.09s2.28,3.05,3.19,4.24c0.91,1.19,2.35,2.17,2.91,3.68
	s1.33,2.66,1.16,4.38c-0.18,1.72,0.11,2.91,0.21,3.22c0.11,0.32-0.25,2.21-0.25,2.21l0.05,0.39c0.07,0.5,0.73,0.64,1,0.21l0,0
	l0.19-1.18c0.06-0.4,0.61-0.5,0.79-0.13c0.11,0.22,0.18,0.5,0.18,0.86c0,1.19-0.18,3.33-0.49,4.06s-0.74,0.77-0.74,0.77l0,0
	c-0.27-0.02-0.49,0.19-0.49,0.46v0.17l-0.59,0.68c-0.16,0.19-0.24,0.44-0.21,0.69l0,0c0.01,0.08,0.1,0.13,0.17,0.09l2.05-1.11
	c0,0,0.95,0.53,1.75,0.35s2.45-1.09,2.94-2.45s0.67-3.82,0.42-5.57c-0.25-1.75-0.6-3.82-1.65-6.23c-1.05-2.42-6.87-16.76-6.87-16.76
	s-0.42-2.61-1.05-6.49c0,0-1.58-7.67-2.63-9.67c-1.05-2-2.38-3.05-2.77-4.97c-0.39-1.93,0.11-6.09-1.02-8.3
	c-1.12-2.21-2.49-3.47-5.11-3.85s-3.82-0.42-5.74,0.21s-3.89,1.51-4.9,2.45C690.66,222.3,690.22,222.68,690.22,222.68z"/>
<path class="st6" d="M542.38,215.9l0.17,0.35c0.18,0.36,0.06,0.79-0.28,1.01c-0.72,0.46-1.86,1.42-2.28,3.14
	c-0.63,2.58-2.02,10.27-1.26,14.55c0.76,4.28,1.39,5.04,0.63,7.18s-7.43,13.1-7.43,13.1s-3.78,6.68-3.28,10.08
	c0.5,3.4,0.13,5.92,1.76,7.81c1.64,1.89,3.65,2.77,4.28,1.89c0.55-0.76,0.93-4.03,1.03-4.89c0.01-0.14-0.01-0.27-0.08-0.39
	l-0.04-0.08c-0.13-0.24-0.46-0.29-0.66-0.1c-0.51,0.5-1.39,1.23-1.69,0.8c-0.44-0.63-1.01-2.33,0.44-4.16c1.45-1.83,9.2-9.7,9.2-9.7
	l0.14-0.2c0.27-0.38,0.87-0.2,0.87,0.27c0.01,1.91,0.08,5.11,0.38,6.48c0.44,2.02-0.82,6.49-1.45,8.82
	c-0.63,2.33-2.02,8.88-0.76,11.34s2.46,3.28,1.45,4.03c-1.01,0.76-2.27,1.64-1.76,2.65s0.76,1.58,1.76,1.51
	c1.01-0.06,2.9-0.82,4.73-0.57c1.83,0.25,5.04,1.13,5.04,0.19c0-0.95-1.58-3.02-1.58-3.59s1.89-12.66,1.95-15.88
	c0.06-3.21-0.38-5.86,0-6.43c0.25-0.37,1.51-2.48,2.36-3.91c0.4-0.67,1.33-0.76,1.85-0.17c1.13,1.27,2.82,3.35,3.35,4.9
	c0.82,2.39,1.76,8.82,3.09,11.4c1.32,2.58,2.9,5.8,3.21,7.88c0.32,2.08-0.44,3.02,0.69,3.59c1.13,0.57,2.33-0.13,4.6,1.2
	c2.27,1.32,4.22,1.76,5.73,1.07c1.51-0.69,2.21-1.26,1.95-2.02s-4.22-3.84-4.22-3.84s0.19-6.55-0.25-8.76
	c-0.44-2.21-4.98-10.33-5.23-11.91c-0.25-1.58-0.5-9.32-1.32-11.91c-0.41-1.28-0.92-2.58-1.34-3.56c-0.17-0.39,0.33-0.72,0.63-0.43
	c1.08,1.05,2.54,2.66,3.42,4.37c1.51,2.96,6.17,11.09,6.55,12.98c0.38,1.89,1.39,5.04,0.25,5.92c-1.13,0.88-1.95,1.07-2.65,1.01
	c-0.69-0.06-0.76,0.57-0.76,0.57s0.63,3.09,1.83,3.78c1.2,0.69,3.84-1.32,4.91-3.28c1.07-1.95,2.08-6.24,1.76-8.76
	s-3.59-7.94-4.73-11.34c-1.13-3.4-2.33-14.18-2.84-15.94c-0.5-1.76-0.63-7.18-2.33-12.03c-1.7-4.85-3.47-9.22-5.99-10.19
	c-2.52-0.97-4.91-0.84-5.54-1.72c-0.63-0.88-0.44-5.73-1.26-6.68s-4.35-3.91-7.31-4.28s-6.17-0.32-8.76,1.26
	c-2.58,1.58-4.66,4.47-4.66,5.92c0,4.06,1.16,5.19,1.52,5.44C542.28,215.74,542.34,215.82,542.38,215.9z"/>
<path class="st6" d="M448.54,179.64c0,0-2.9-5.45-10.06-6.31s-10.4,1.02-13.29,2.39c-2.9,1.36-4.6,2.73-4.09,3.92
	s1.18,2.56-0.09,3.24c-1.27,0.68-3.83,0.85-5.19,3.07S409,200.43,409,203.67c0,3.24,1.7,6.82,0,11.59s-7.5,11.25-11.59,19.26
	s-6.99,9.54-7.84,12.1c-0.85,2.56-1.7,12.61-0.68,15c1.02,2.39,3.75,5.79,5.62,6.82s3.07,1.02,3.07,0s-0.51-2.73-0.51-2.73
	s1.7-2.39,1.19-3.58c-0.51-1.19-2.56-5.28-2.22-6.99c0.34-1.7,6.99-10.57,6.99-10.57l9.89-10.74c0,0-3.58,8.86-6.65,13.29
	c-3.07,4.43-4.26,9.54-6.14,12.27s-3.68,14.97-3.68,14.97s-4.13-0.1-6.14-1.15c-2.02-1.06-6.43-1.73-6.72-1.06
	c-0.29,0.67,0,1.82,0,1.82s-1.44-0.48-1.73,0.38c-0.29,0.86,0,1.63,0.58,1.82s4.61,0.86,7.49,1.73c2.88,0.86,10.08,3.84,11.62,3.94
	s5.47,1.73,5.86,0c0.38-1.73,2.69-9.6,3.26-11.62s5.66-11.62,7.49-13.54c1.82-1.92,4.51-6.05,6.34-6.14s2.88,0.86,5.28,2.21
	c2.4,1.34,7.3,2.11,8.83,7.11c1.54,4.99,1.73,10.95,1.25,13.15s-1.25,4.13-0.58,6.53s3.17,5.09,2.88,5.95
	c-0.29,0.86-4.51,1.06-4.51,1.06s-6.14-0.29-6.43,0.58c-0.29,0.86-0.29,0.86-0.29,0.86s20.35,4.03,21.32,3.36
	c0.96-0.67,0.1-2.88,0-3.46c-0.1-0.58,3.94-9.22,3.65-11.71c-0.29-2.5-6.34-15.27-6.34-18.43c0-3.17,1.73-13.54,1.25-15.36
	c-0.48-1.82-3.07-4.9-3.46-4.9c-0.38,0,1.25-2.02,1.25-2.02s8.26,8.64,12.1,11.71s10.85,6.72,13.63,9.7
	c2.78,2.98,3.55,3.84,2.88,5.18c-0.67,1.34-1.92,2.21-3.46,1.92c-1.54-0.29-1.92-2.11-2.69-1.73c-0.77,0.38-0.86,0.67-1.73,0.19
	c-0.86-0.48-1.44-0.96-1.54,0s0.58,2.78,0.67,3.17c0.1,0.38-1.54,0.67-0.96,1.44c0.58,0.77,0.77,1.73,2.21,2.5
	c1.44,0.77,3.46,2.59,4.42,2.4c0.96-0.19,7.11-3.07,7.11-3.07s2.78-0.96,2.88-2.4c0.1-1.44,1.15-9.99,0.48-11.81
	s-11.62-16.23-11.62-16.23l-0.58-2.4c0,0-0.38-0.48-1.73-3.26c-1.34-2.78-2.21-3.84-3.84-5.86c-1.63-2.02-1.34-5.86-1.15-7.68
	c0.19-1.82,2.02-4.7,2.02-6.14s-1.92-18.34-4.32-21.22c-2.4-2.88-4.32-4.8-6.05-6.82c-1.73-2.02-3.55-3.46-5.47-3.84
	C449.94,180.86,448.54,179.64,448.54,179.64z"/>
<path class="st7" d="M306.47,159.46c1.07,0.14,1.53,0.61,2.95,1.73c1.42,1.12,4.88,3.86,6.1,5.8c1.22,1.93,1.02,5.8,1.12,7.83
	c0.1,2.03-0.61,3.56,0.2,4.98s1.12,3.36,0.71,8.14c-0.41,4.78,0.51,10.07,0.41,12.61s0.41,6.81,0.2,8.85
	c-0.2,2.03-2.34,1.32-2.34,2.34c0,1.02,2.03,7.42,3.46,10.98c1.42,3.56,5.29,6.81,9.76,11.39s7.42,13.73,7.94,16.47
	c0.52,2.75-1.03,6.51-2.04,9.56c-0.86,2.57-2.36,5.78-2.81,6.74c-0.09,0.18-0.24,0.32-0.43,0.4l-9.18,3.65
	c-0.3,0.12-0.5,0.4-0.5,0.72c-0.04,1.67-0.18,6.88-0.6,9.34c-0.51,2.95,0.31,3.97,2.44,4.37c2.14,0.41,8.34,1.12,10.68,1.63
	c2.34,0.51,3.05,2.14,1.93,3.05c-1.12,0.92-5.69,0-10.78,0.1s-8.34,0.41-10.47,0.51c-2.14,0.1-3.46,0.81-5.59,0.81
	c-2.14,0-3.76-1.02-5.08-1.02c-1.32,0-1.42-1.42-1.42-2.24s3.36-1.63,3.56-2.24c0.2-0.61,0.31-2.24,0-4.07
	c-0.31-1.83-0.71-9.05-1.63-13.73s-2.64-7.02-5.39-9.66c-2.75-2.64-6.2-2.95-8.44-4.27c-1.68-0.99-2.15-3.87-2.29-5.25
	c-0.04-0.42-0.41-0.74-0.83-0.72l-1.08,0.04c-0.39,0.02-0.7,0.3-0.76,0.68c-0.19,1.27-0.72,4.03-1.95,5.34
	c-1.63,1.73-5.9,4.07-9.86,7.52c-3.54,3.09-7.33,7.72-8.1,8.67c-0.09,0.11-0.15,0.25-0.17,0.4c-0.1,0.75-0.41,3.3-0.58,5.78
	c-0.2,2.95-2.03,6.41-2.14,8.44c-0.05,0.93,0.48,1.68,1.06,2.23c0.48,0.46,0.26,1.26-0.4,1.38c-1.32,0.24-3.18,0.54-5.04,0.76
	c-3.46,0.41-3.86-0.2-7.93,0.31c-4.07,0.51-3.56,0.92-6.2,1.12s-3.05-0.92-3.15-2.24c-0.1-1.32,2.95-2.03,4.78-4.07
	s2.85-3.56,2.85-5.39s0-7.12,0.41-10.17c0.41-3.05,3.05-5.39,4.17-7.63c1.12-2.24,3.86-5.39,4.68-7.73
	c0.81-2.34,2.24-9.15,4.27-12.91c2.03-3.76,3.46-5.9,5.85-8.44c2.39-2.54,1.37-8.85,1.37-12.61c0-2.91-1.52-12.04-2.21-16.01
	c-0.12-0.7-1.03-0.91-1.44-0.33l-5.18,7.26c-0.01,0.02-0.02,0.04-0.04,0.05c-0.43,0.72-9.29,15.71-11.58,18.99
	c-2.34,3.36-2.24,7.42-1.22,9.56c0.94,1.96,4.45,4.7,5.01,5.13c0.05,0.04,0.1,0.08,0.14,0.13c0,0,2.49,1.37,2.22,2.08
	c-0.16,0.42-1.8,0.06-1.8,0.06c-0.18,0.01-0.35-0.03-0.5-0.13c-0.55-0.37-2-1.31-2.73-1.48c-0.01,0-0.02,0-0.03-0.01
	c-0.64-0.13-1.14,0.55-0.85,1.14c0.72,1.49,2.19,4.34,3.22,5.38c1.42,1.42,3.25-0.1,4.37-0.2c1.12-0.1,0.81,0.31,0.71,1.02
	c-0.1,0.71-2.95,2.64-4.07,3.36c-1.12,0.71-4.07,0.81-8.14-1.42c-4.07-2.24-3.86-5.69-5.49-8.24c-1.63-2.54-3.76-5.69-4.78-6.81
	c-1.02-1.12-0.71-5.08-0.51-9.25c0.2-4.17,3.86-17.08,5.59-21.76c1.73-4.68,1.63-4.37,2.44-6.51s1.93-1.22,3.05-1.93
	c1.12-0.71,1.93-2.75,3.05-4.68c1.12-1.93,9.25-9.15,12.1-11.19c2.85-2.03,7.32-7.52,9.25-8.75c1.93-1.22,5.29-4.07,7.12-5.19
	c1.83-1.12,2.95-1.22,4.17-0.81c1.22,0.41,3.56,0.1,4.27-0.61c0.42-0.42-0.09-1.35-0.57-2.03c-0.3-0.43-0.12-1.03,0.37-1.21
	c0.77-0.29,1.84-0.65,2.64-0.83c1.42-0.31,6.91-4.47,9.15-5.29c1.96-0.71,4.01-0.17,4.48-0.03c0.07,0.02,0.14,0.03,0.22,0.03
	C303.12,159.26,305.14,159.28,306.47,159.46z M307.69,229.82l-0.81,2.95c0,0,4.17,3.86,4.88,6.2s0.41,3.86,1.83,5.08
	c1.42,1.22,2.03,2.24,4.17,6.51c2.14,4.27,2.64,8.75,2.64,8.75l0.81,5.9c0,0,3.56-1.73,4.78-2.95c1.22-1.22,2.85-2.44,3.46-4.07
	c0.61-1.63,0.51-2.64,0-3.86c-0.51-1.22-3.15-5.49-4.58-6.81c-1.42-1.32-3.66-3.56-5.08-5.08c-1.42-1.53-3.46-3.46-5.39-4.78
	s-3.05-2.85-4.07-4.47S307.69,229.82,307.69,229.82z"/>
<path id="_250368728_2_" class="st8" d="M158.35,69.16c0.89,0.69,1.2,1.91,2.1,3.01c1.09,1.32,5.04,2.23,8.13,3.27
	c3.09,1.04,8.18,3.18,10.85,4.63c2.68,1.45,5.41,3.59,6.81,10.81c1.41,7.22,1.73,10.58,2,13.67c0.27,3.09,0.32,5.86,0.32,5.86
	s-0.31,0.1-0.89,0.25c0.38,2.42,1.01,6.52,1.49,9.83c0.73,5.04,0.23,23.89-0.68,31.61c-0.91,7.72-1.73,9.81-2.45,11.63
	c-0.73,1.82-1.54,3.45-1.73,5.99c-0.18,2.54-0.27,2.91-2,5.54c-1.73,2.63-0.76,3.45-3.36,5.99c-0.9,0.88-1.8,1.62-2.6,2.23v1.45
	c0,3.81,0.27,18.48,0.32,23.07c0.05,4.59-0.14,6.13,0.5,8.27c0.64,2.13-0.09,3.77-0.09,4.09c0,0.32,0.77,0.95,0.86,3.22
	c0.09,2.27,0.05,3.54,0.09,4.5c0.05,0.95-0.95,16.76-0.68,20.21c0.27,3.45,1.82,4.36,1.14,6.09c-0.68,1.73-2.54,2.77-1.95,5.04
	c0.59,2.27,2.82,2.36,2.41,3.59c-0.41,1.23,0.36,2.68-1.18,3.5c-1.54,0.82-1.59,1.95-1.59,1.95s1.82,1.82,2.95,4.82
	c1.14,3,0.68,3.59,2.09,4.68c1.41,1.09,4.91,2.73,5.4,4.68c0.5,1.95,0.23,4.13-0.18,4.9c-0.41,0.77-4.27,1.68-6.4,1.77
	c-2.13,0.09-5.04-2.45-6.77-3.59c-1.72-1.13-3.95-3.95-5.68-5.5c-1.73-1.54-2.36-3.13-2.63-5.27c-0.27-2.13-0.27-2.91,0-4.22
	c0.27-1.32,0.36-2.27,0.36-2.27s-1.82-0.41-2.04-2.22c-0.23-1.82-0.68-4.09-0.32-6.54c0.36-2.45-0.73-2.91-0.73-6.45
	c0-3.54-0.82-3.45-0.36-6.81c0.45-3.36-0.63-14.8-0.91-18.35c-0.27-3.54-0.82-4.36-0.64-6.99c0.18-2.63-0.55-3.18-1.18-6.54
	c-0.64-3.36,0.18-3.09-0.64-8.36c-0.82-5.27-2.82-13.35-4.09-18.26c-1.27-4.91-1.91-5.54-2.36-7.27c-0.45-1.73-0.91-3.09-0.91-3.09
	s-1.54,3.63-2.18,9.45c-0.63,5.81-0.36,8.99-0.91,14.62c-0.55,5.63-1.36,10.35-1.45,13.81c-0.09,3.45-0.41,2.82-0.95,5.13
	c-0.55,2.32-0.5,4.13-0.14,6.63c0.36,2.5,0.14,2.91,0.14,5.41c0,2.5,0.05,10.49-0.23,14.85c-0.27,4.36-1,4.91-0.55,7.18
	c0.45,2.27,1.54,4.72,0.64,6.18c-0.91,1.45-0.54,2.27-1,3.82c-0.45,1.54-0.82,1.73-0.82,1.73s0.73,1.73,0.64,5
	c-0.09,3.27,0.55,5.63,0.36,6.99c-0.18,1.36-2.63,2.36-4.18,4.27c-1.54,1.91-4.36,5.27-8.45,7.36c-4.09,2.09-8.81,1.54-10.63,0.82
	c-1.82-0.73-1.82-4.27-1.27-5.54c0.54-1.27,2.27-2.63,4.18-4c1.91-1.36,2.18-3.36,3.91-5.09c1.72-1.73,1.45-3.81,2.36-5.63
	c0.91-1.82,1.09-3.18,0.91-4.63c-0.18-1.45-2.09-2.27-1.64-5.72c0.45-3.45,0.27-4.81,0.27-6.09c0-1.27-1.09-11.08-1.54-17.17
	c-0.45-6.09-1.91-8.99-1.09-11.81c0.82-2.82,1.36-4.81,0.64-10.08c-0.73-5.27-1.09-9.08-1.18-13.99c-0.09-4.91-0.91-9.72-0.91-13.53
	c0-0.34,0-0.74,0-1.18c-1.03-0.95-2.1-2.22-2.86-3.85c-2-4.27-3.54-6.72-4.54-10.99c-1-4.27-2.82-5.45-3.18-8.99
	c-0.36-3.54-1.36-7.72-1.36-10.26c0-2.54-0.27-13.53-0.27-21.07c0-5.07,0.45-10.02,0.75-12.71c-0.64-0.08-0.99-0.14-0.99-0.14
	s-0.23-5.77,0-10.17c0.23-4.41,1-14.58,2.18-16.62c1.18-2.04,1.68-2.72,1.68-2.72s0.46-2.04,5.18-4.81
	c4.72-2.77,7.54-5.04,10.81-6.68c3.27-1.64,3.63-0.86,4.31-3c0.58-1.8,0.6-3.48,2.07-4.28l-0.08-1.93c0,0-0.35-0.58-0.72-1.57
	c-0.37-0.99-0.63-3.41-0.63-3.41s-1.29-0.03-1.7-0.92c-0.41-0.9-0.97-3.8-1-6.27c-0.03-2.47,0.78-2.7,0.78-2.7s-0.07-1.37-0.16-3.11
	c-0.09-1.74-0.6-6.48-0.03-9.81c0.57-3.33,4.57-5.82,12.1-5.55c7.53,0.27,8.66,6.44,8.66,6.44s1.92,0.87,2.08,3.06
	c0.16,2.19,0.63,7.07,0.63,7.07s1.26,0.44,1.48,2.04c0.22,1.59,0.45,4.51-0.23,6.52c-0.68,2-1.94,2.48-1.94,2.48
	s-0.37,0.8-0.72,2.05c-0.35,1.25-0.15,2.53-0.06,4.26L158.35,69.16z M126.34,165.02c0.13-3.8,0.38-8.37,0.38-12.29
	c0-5.27,0.36-22.44,0.36-26.98c0-0.52-0.01-1.06-0.03-1.62c-0.49,3.85-1.07,8.22-1.56,11.48c-1.09,7.27-1.54,12.63-1.64,18.17
	c-0.09,5.54-0.45,7.18,0.64,9.08C124.97,163.69,125.66,164.37,126.34,165.02L126.34,165.02z M175.23,117.61l0.49,13.91
	c0.18,5.18,0.36,9.35,0.36,13.62c0,3.32,0.39,11.53,0.47,18.48c0.35-0.25,0.66-0.49,0.9-0.72c1.5-1.41,1.77-1.77,2-2.41
	c0.23-0.64,0-11.08-0.64-19.53C178.33,134.55,176.54,124.82,175.23,117.61z"/>
<g>
	<text transform="matrix(1 0 0 1 391.6162 314.8635)" class="st2 st3 st4">Hoolock</text>
</g>
<g>
	<text transform="matrix(1 0 0 1 253.4428 314.8635)" class="st2 st5 st4">Siamang</text>
</g>
<g>
	<text transform="matrix(1 0 0 1 115.7628 314.8635)" class="st2 st3 st4">Hombre</text>
</g>
<g>
	<text transform="matrix(1 0 0 1 521.408 314.8635)" class="st2 st3 st4">Hylobates</text>
</g>
<g>
	<text transform="matrix(1 0 0 1 652.9 314.8635)" class="st2 st3 st4">Nomascus</text>
</g>
</svg>
