<?xml version="1.0" encoding="utf-8"?>
<!-- Generator: Adobe Illustrator 25.3.1, SVG Export Plug-In . SVG Version: 6.00 Build 0)  -->
<svg version="1.1" id="Capa_1" xmlns="http://www.w3.org/2000/svg" xmlns:xlink="http://www.w3.org/1999/xlink" x="0px" y="0px"
	 viewBox="0 0 798.57 485.71" style="enable-background:new 0 0 798.57 485.71;" xml:space="preserve">
<style type="text/css">
	.st0{fill:none;}
	.st1{fill:#1E1E1C;}
	.st2{font-family:'BarlowSemiCondensed-Light';}
	.st3{font-size:21.4255px;}
	.st4{fill:none;stroke:#95C11F;stroke-width:1.381;stroke-miterlimit:10;}
	.st5{fill:none;stroke:#979392;stroke-width:1.4284;stroke-linecap:round;stroke-linejoin:round;stroke-miterlimit:10;}
	.st6{fill:none;stroke:#1E1E1C;stroke-width:1.4284;stroke-miterlimit:10;}
	.st7{fill:#95C11F;}
	.st8{font-size:18.8765px;}
	.st9{fill:none;stroke:#A29F9E;stroke-width:2.8567;stroke-linecap:round;stroke-linejoin:round;stroke-miterlimit:10;}
	.st10{fill:none;stroke:#95C11F;stroke-width:1.2769;stroke-linecap:round;stroke-miterlimit:10;}
	.st11{fill:none;stroke:#1E1E1C;stroke-width:1.4284;stroke-linecap:round;stroke-linejoin:round;stroke-miterlimit:10;}
	.st12{fill:none;stroke:#1D1E1C;stroke-width:1.4284;stroke-miterlimit:10;}
</style>
<g>
	<rect x="59.11" y="363.92" class="st0" width="137.04" height="29.51"/>
	<text transform="matrix(1 0 0 1 70.9348 378.9195)" class="st1 st2 st3">Mano humana</text>
</g>
<g>
	<rect x="253.63" y="362.69" class="st0" width="137.04" height="29.51"/>
	<text transform="matrix(1 0 0 1 300.5344 377.692)" class="st1 st2 st3">Mano </text>
</g>
<g>
	<rect x="438.32" y="362.28" class="st0" width="137.04" height="29.51"/>
	<text transform="matrix(1 0 0 1 494.029 377.2779)" class="st1 st2 st3">Pie</text>
</g>
<g>
	<rect x="199.1" y="395.4" class="st0" width="424.45" height="71.35"/>
	<text transform="matrix(1 0 0 1 219.8869 410.3961)"><tspan x="0" y="0" class="st1 st2 st3">Único primate dentro de los gibones que posee </tspan><tspan x="-1.25" y="25.71" class="st1 st2 st3">pulgares opuestos funcionales, tanto en manos </tspan><tspan x="134.66" y="51.42" class="st1 st2 st3">como en pies.</tspan></text>
</g>
<polyline class="st4" points="244.33,372.25 244.33,386.38 562.29,386.38 562.29,372.25 "/>
<g>
	<g>
		<path class="st5" d="M90.96,351.22c0,0,2.32-10.05,1.93-19.72c-0.39-9.67-5.41-23.59-5.41-23.59s-18.95-19.34-22.43-27.07
			s-6.96-13.92-8.51-23.2c-1.55-9.28-8.51-22.82-8.51-27.07s4.13-21.56,3.76-29.91c-0.36-8.36,1.09-16.35,10.18-12.36
			c9.08,4,13.81,11.27,13.45,17.81c-0.36,6.54-2.54,13.81-2.91,17.44c-0.36,3.63,3.27,10.54,4.36,15.99
			c1.09,5.45-0.73,2.84,2.54,8.87c3.27,6.03,5.81,6.03,6.9,3.12s1.45-56.33,1.45-56.33s1.82-25.8,1.82-30.16
			c0-4.36,0.73-20.35,0-26.53c-0.73-6.18,0.73-24.74,0.73-24.74s1.09-9.06,9.81-9.79c11.23-0.94,9.08,17.08,9.08,17.08
			s-2.18,9.08-2.18,14.17s1.09,16.72,0.73,20.35c-0.36,3.63,0,4.72,0,14.54s-0.73,16.5,1.09,16.24c1.82-0.25,6.9,0.47,6.18-4.25
			c-0.73-4.72-0.73-28.71-1.45-33.07c-0.73-4.36,0.36-33.07,1.09-36.34c0.73-3.27,0.73-23.26,0.73-23.26s2.18-10.54,9.84-10.54
			c10.51,0,12.33,9.81,12.33,9.81s-0.73,14.9-2.54,21.08c-1.82,6.18,0.36,13.81,0,21.8c-0.36,7.99-0.36,14.54-0.73,19.26
			c-0.36,4.72,0.36,30.53,0.36,30.53s2.54,2.91,4,1.09c1.45-1.82,3.63-22.17,3.27-31.98s1.45-33.8,0.36-37.43
			c-1.09-3.63-1.09-12.72-1.09-16.35s1.45-14.17,9.81-14.54c10.53-0.46,10.9,14.17,10.9,14.17s0.36,9.45,0.36,15.63
			s1.09,14.9,1.09,19.99c0,5.09-1.45,13.45-1.45,18.53s1.09,13.38,1.09,17.41s-1.45,16.16,0,18.45c1.45,2.29,6.54,5.56,7.63,3.38
			c1.09-2.18,2.04-9.81,2.65-23.26s1.6-35.32,1.6-35.32s-1.6-17.77,9.67-17.4c11.88,0.39,10.05,12.76,10.05,12.76
			s-1.16,17.79-1.93,23.59c-0.77,5.8-1.16,47.18-0.39,51.82c0.77,4.64,4.25,12.38,5.41,21.66s5.41,25.91,4.64,40.22
			c-0.77,14.31-3.09,32.43-10.05,44.03s-5.8,12.82-8.89,22.87s-2.71,20.5-2.71,20.5"/>
		<path class="st5" d="M90.96,351.22"/>
		<path class="st5" d="M180.68,351.22"/>
		<path class="st5" d="M193.89,228.63c0,0-26.53,1.21-41.79-2.85s-20.29-9.14-26.86-14.96s-14.56-16.72-14.56-16.72"/>
		<path class="st5" d="M91.78,220.99c0,0,33.07,5.81,49.79,16.35c16.72,10.54,29.07,19.26,29.07,19.26"/>
		<path class="st5" d="M91.78,220.99c0,0,33.46,12.36,46.15,27.41c9.45,11.21,14.54,29.65,14.35,40.91
			c-0.18,11.27-2.36,18.53-2.36,18.53"/>
		<path class="st5" d="M72.51,223.54c0,0-1.82,5.06-5.81,5.26c-4,0.19-9.45,0-9.45,0"/>
		<path class="st5" d="M77.31,243.52c0,0-2.25,8-8.07,11.27"/>
		<path class="st5" d="M81.4,251.45c0,0-1.47,1.89-4.09,10.97"/>
		<path class="st5" d="M161.91,150.5c0,0-4.35,1.09-9.63,0"/>
		<path class="st5" d="M162.27,111.97c0,0-0.54,3.27-5.18,3.27s-8.77,0-8.77,0"/>
		<path class="st5" d="M193.63,140.02c0,0-2.65,2.12-6.28,2.12s-3.63,0-3.63,0"/>
		<path class="st5" d="M192.01,167.91c0,0-2.11,1.85-5.75,1.48"/>
		<path class="st5" d="M192.29,201.94c0,0-0.94-0.28-8.57-3.51c-7.63-3.23-7.63-3.23-7.63-3.23"/>
		<path class="st5" d="M134.29,150.86c0,0-4.3,0.61-9.06,0.12c-4.75-0.48-4.75-0.48-4.75-0.48"/>
		<path class="st5" d="M134.29,113.61c0,0-3.94,2.36-9.06,1.64s-5.12-0.73-5.12-0.73"/>
		<path class="st5" d="M107.2,140.02c0,0,0.56,0.79-4.16,0c-4.72-0.79-6.9,0-6.9,0"/>
		<path class="st5" d="M107.22,161.76c0,0-1.82,4.36-5.54,4.36s-5.54,0-5.54,0"/>
		<path class="st5" d="M103.77,188.29c0,0-4.36,1.45-7.63,4"/>
		<path class="st5" d="M131.2,184.65c0,0-0.49,1.23-5.97,1.71s-5.48,0.47-5.48,0.47"/>
		<path class="st5" d="M158.75,184.65c0,0-3.38,1.45-8.47,0c-5.09-1.45-5.09-1.45-5.09-1.45"/>
		<path class="st5" d="M184.62,326.43c0,0-1.98,1.99-11.08,2.4c-13.6,0.61-25.92-1.48-21.25-1.37"/>
		<path class="st5" d="M116.12,322.02c0,0-11.99-3.27-18.17-7.27c-6.18-4-10.47-6.85-10.47-6.85"/>
		<path class="st5" d="M54.61,188.29c0,0,1.76,3.33,2.64,10.28c0.88,6.95,0,10.26,0,10.26h-5.96"/>
	</g>
</g>
<g>
	<g>
		<g>
			<path class="st6" d="M486.14,147.76c0,0-1.79,2.67-5.79,3.42c-4,0.75-8.36,0-8.36,0"/>
			<polygon class="st7" points="484.52,126.24 490.61,124.73 491.68,129.79 491.87,136.5 490.61,145.65 490.07,149.64 
				490.61,160.38 490.51,167.05 488.62,172.55 487.25,173.2 486.14,172.63 487.25,164.63 486.14,156.98 484.37,152.39 
				484.37,150.32 486.14,145.03 483.68,139.55 			"/>
			<path class="st6" d="M425.61,178.65c0,9.11-2.82,14.71-10.76,14.71s-14.37-7.38-14.37-16.49s6.43-16.49,14.37-16.49
				S425.61,169.55,425.61,178.65z"/>
			<path class="st6" d="M400.75,179.98c0,0-2.87,30.08-2.87,34.01c0,3.93,1.88,15.68,9.43,20.9s34.09,24.81,40.18,31.77
				c6.09,6.96,19.15,26.9,23.06,38.25c3.92,11.36,6.23,31.38,19,37.9c12.77,6.53,16.24,7.04,23.22,6.58
				c5.66-0.38,16.1-5.27,20.02-13.54c3.92-8.27,1.74-34.81,1.74-41.34c0-6.53-4.09-37.61,3.39-57.1s6.31-20.63,7.36-26.92
				c1.06-6.3,0.7-10.08,0-12.85c-0.7-2.77,0.82-8.47,0.82-15.35c0-6.88-0.61-8.32-0.82-12.86c-0.2-4.53-0.44-6.44,0.82-9.74
				s-0.03-7.38-0.15-9.9c-0.11-2.52,0.42-6.01,0.05-8.78"/>
			<ellipse class="st6" cx="475.18" cy="113.71" rx="9.19" ry="11.38"/>
			<ellipse class="st6" cx="499.8" cy="109.44" rx="9.19" ry="11.38"/>
			<ellipse class="st6" cx="521.47" cy="113.05" rx="9.19" ry="10.18"/>
			<ellipse class="st6" cx="536.81" cy="141" rx="9.19" ry="10.18"/>
			<path class="st6" d="M422.72,190.66c0,0,7.23,2.98,8.8,7.66c2.41,7.23-2.3,12.41-2.3,12.41s8.09-4.04,11.94-2.76
				c7.23,2.41,6.44,9.81,6.44,9.81s8.56-1.01,11.08,3.02c2.52,4.03,2.52,4.03,2.52,4.03s-0.17-0.32,1.66-2.4
				c1.87-2.13-2.74-6.99-2.67-11.96c0.09-5.8,0.25-13.85,0.25-13.85s-1.93-3.74-1.76-7.81c0.4-9.53,6.92-13.88,6.59-14.6
				c-1-2.17-0.52-6.25,0.72-9.59c1.76-4.78,1-12.43,0-18.16c-0.51-2.9-1.76-10.1-1.26-14.48s0.76-2.91,1.26-8.76
				c0.5-5.85,0-9.52,0-9.52"/>
			<path class="st6" d="M483.68,118.05c0,0-0.06,2.5,0.7,7.04c0.76,4.53-0.5,12.3,0,15.59c0.5,3.3,2.77,4.81,1.76,7.08
				c-1.01,2.27-2.27,1.46-1.76,4.64c0.5,3.17,2.73,7.69,2.88,12.23c0.14,4.54-2.66,9.08,0,8.57c2.66-0.5,3.29-3.79,3.35-8.57
				c0.07-4.78-0.32-9.61,0-12.23c0.32-2.62-1.56-1.81,0.01-6.75c1.57-4.94,1.32-11.15,1.07-15.85s-2.88-7.41-1.07-10.5
				s0-9.85,0-9.85"/>
			<path class="st6" d="M507.56,115.53c0,0-0.24,1.31,0,7.71c0.24,6.39,1.06,14.7-0.11,20.5c-1.17,5.79-1.67,10.72-1.67,15.06
				c0,4.34,1.54,12.73,2.28,14.45c0.74,1.72,2,2.54,2,2.54s-1.01-9.63,0-13.66c1.01-4.03,2.39-4.83,2.2-7.45
				c-0.19-2.62-0.53-8.67,0.02-10.68s-1.31-7.81,0-10.83c1.31-3.02,1.87-6.43,2.06-9.92c0.19-3.49-2.08-10.18-2.08-10.18"/>
			<path class="st6" d="M527.61,120.61c0,0-1.93,7.75-1.42,12.54c0.5,4.79,1.59,9.07,0.67,15.87s-0.84,10.08-0.75,14.61
				c0.08,4.53,3.11,11.79,3.11,14.84s0.63-6.27,1.45-11.31s-1.2-9.37-1.2-12.49c0-3.12-0.31-8.02-0.31-8.02"/>
			<path class="st6" d="M410.57,223.83c0,0,5.04-5.79,8.31-7.81s10.34-5.29,10.34-5.29s1.5,4.33-2.28,11.36
				c-3.78,7.03-6.05,10.4-6.05,10.4"/>
			<path class="st6" d="M431.98,236.7"/>
			<path class="st6" d="M447.6,217.79c0,0-3.78,9.07-7.56,13.6c-3.78,4.53-8.06,5.31-8.06,5.31"/>
			<path class="st6" d="M461.2,224.84c0,0,3.78,5.47,6.55,19.36c2.77,13.89,4.24,31.52,4.24,31.52"/>
			<path class="st6" d="M462.86,222.44c0,0,24.11,0,26.69,36.7c0.48,6.84-4.99,11.52-4.99,11.52"/>
			<path class="st6" d="M461.2,280.26c0,0,7.2,0.05,18.39-6.3c11.69-6.63,21.79-16.01,21.85-15.36"/>
			<path class="st6" d="M521.91,224.84c0,0-8.8,10.58-11.83,23.43c-3.03,12.85-4.29,26.2-4.29,26.2"/>
			<path class="st6" d="M464.73,285.3c0,0,17.38-10.58,30.48-9.57c13.1,1.01,21.16,5.79,24.43,7.31s7.05,1.76,8.82,1.26"/>
			<path class="st6" d="M474.91,227.26c0,0,11.52,7.7,25.08,9.44s21.92,2,21.92,2"/>
			<path class="st6" d="M460.44,196.63c0,0,15.87-2.02,36.15,6.3s32.12,17.74,35.39,18.69"/>
			<path class="st6" d="M465.27,174.22c0,0,13.24-2.52,21.7,0c8.46,2.52,14.03,3.22,17.05,11.8c3.02,8.59,1.76,11.61,1.76,11.61"/>
			<path class="st6" d="M527.61,204.06c0,0,4.41-13.46-4.46-18.99c-9.66-6.03-19.31-1.21-19.31-1.21"/>
			<path class="st6" d="M484.37,140.68c0,0-2.33,0.21-7.62,0.66c-5.29,0.45-6.66,1.54-6.66,1.54"/>
			<path class="st6" d="M507.46,143.73c0,0-1.8-2.82-5.01-2.73c-3.21,0.09-7.37,0.8-7.37,0.8"/>
			<path class="st6" d="M490.61,152.39c0,0,6.74,0.76,10.71-1.21s5.14-1.54,5.14-1.54"/>
			<path class="st6" d="M512.27,154.66c0,0,3.59,2.54,6.42,1.75c2.83-0.79,4.46-3.88,4.46-3.88"/>
			<path class="st6" d="M512.29,143.98c0,0,4.9,2.58,7.54,2.02s3.32-1.58,3.32-1.58"/>
			<path class="st6" d="M469.25,105.02c0,0,7.62-7.79,9.82-6.96c2.23,0.84,3.49,8.86,3.49,8.86"/>
			<path class="st6" d="M496.21,98.96c0,0,4.39-5.75,6.42-5.3c2.15,0.47,3.81,7.94,3.81,7.94"/>
			<path class="st6" d="M516.97,104.17c0,0,4.03-6.35,6.19-6.11c2.61,0.29,5.65,8.86,5.65,8.86"/>
			<path class="st6" d="M531.98,132.34c0,0,3.6-7.39,5.94-7.25c2.86,0.17,6.14,9.67,6.14,9.67"/>
		</g>
	</g>
	<g>
		<text transform="matrix(1 0 0 1 410.8405 153.8082)" class="st1 st2 st8">I</text>
	</g>
	<g>
		<text transform="matrix(1 0 0 1 471.4821 88.9293)" class="st1 st2 st8">II</text>
	</g>
	<g>
		<text transform="matrix(1 0 0 1 494.6423 88.9293)" class="st1 st2 st8">III</text>
	</g>
	<g>
		<text transform="matrix(1 0 0 1 516.196 88.9293)" class="st1 st2 st8">IV</text>
	</g>
	<g>
		<text transform="matrix(1 0 0 1 539.0915 119.0064)" class="st1 st2 st8">V</text>
	</g>
</g>
<path class="st9" d="M553.78,110.87"/>
<path class="st10" d="M561.17,157.72"/>
<g>
	<path class="st11" d="M290.84,163.34c0,0-4.57-4.82,0-13.71c4.57-8.88,7.87-12.44,10.41-11.17c2.54,1.27,6.09,16.25,3.81,20.81
		c-2.28,4.57-1.78,24.11-2.28,26.14c-0.51,2.03,0.51,15.48,0.25,17.01c-0.25,1.52,1.97,22.84,2.76,24.88
		c0.79,2.03,1.8-20.56,2.57-21.58c0.76-1.02-0.51-17.01,0-18.02c0.51-1.02,4.47-27.07,5.58-31.47c1.02-4.02,0.75-2.79,0-5.08
		c-0.46-1.41,0.42-8.63,1.1-9.9c0.68-1.27,3.98-9.39,7.53-10.41c3.55-1.02,6.35,18.53,3.81,22.59c-2.54,4.06-2.28,33-2.28,33.76
		s-1.02,15.99-1.02,15.99s0,25.89,1.78,27.41c1.78,1.52,2.72-14.72,2.5-18.02c-0.22-3.3,0.04-17.26,1.05-24.62
		c1.02-7.36,3.05-20.56,3.05-21.83s-2.28-4.32-1.27-9.39c1.02-5.08,5.84-11.42,7.11-11.68c1.27-0.25,7.11,8.63,6.85,12.95
		c-0.25,4.32-1.02,10.66-1.52,11.68c-0.51,1.02-0.51,28.43-0.51,29.95s1.03,30.21,2.04,32.74c1.01,2.54,2.28,6.6,2.53,7.87
		c0.25,1.27-2.03-10.15-1.27-14.98c0.76-4.82,2.54-26.91,2.79-28.43c0.25-1.52-3.05-7.36-1.02-12.95c2.03-5.58,4.82-7.11,6.09-5.84
		c1.27,1.27,5.08,6.6,4.57,10.91s-0.16,26.25,0.05,27.97s0.55,7.06,0,7.82s0.64,22.08,0.3,24.11s-3.9,27.92-4.15,29.19
		c-0.25,1.27-2.28,12.95-2.79,15.99c-0.51,3.05,0.76,22.34,0.76,24.11c0,1.78-0.03,19.32-0.76,23.35c-0.53,2.91-4.13,7.86-7.61,9.14
		c-4.55,1.67-13.96-3.3-17.51-4.06c-3.55-0.76-8.63,3.3-14.72,2.79c-6.09-0.51-14.72-8.38-25.64-21.07
		c-10.91-12.69-29.19-34.27-29.7-37.82c-0.51-3.55,0.76-14.47,0-16.25c-0.76-1.78-3.3-7.61-2.54-11.93s8.38-3.55,9.9-2.28
		c1.52,1.27,6.85,7.11,6.35,12.69c-0.51,5.58-1.27,4.06-0.51,5.58c0.76,1.52,7.61,9.9,7.36,12.69c-0.25,2.79,5.33,2.28,6.85,4.57
		s10.91,4.06,11.93,7.11c1.02,3.05,6.09,0.51,8.12,2.54c2.03,2.03-4.82-13.45-5.08-14.98c-0.25-1.52-7.61-18.78-7.36-20.31
		c0.25-1.52-4.57-12.18-4.57-15.74c0-3.55,0.51-18.78,1.78-21.83c1.27-3.05-4.32-23.61-3.55-27.92c0.76-4.32,1.27-15.99,1.78-16.75
		S287.54,168.42,290.84,163.34z"/>
	<path class="st11" d="M290.84,163.34c3.22,1.91,4.57,1.91,7.62,1.57s5.84-3.16,5.84-3.16"/>
	<path class="st11" d="M314.95,153.7c0,0,0.93,3.76,4.56,3.36c3.63-0.4,6.86-3.62,6.86-3.62"/>
	<path class="st11" d="M331.24,168.12c0,0,1.4,3.48,4.03,3.89c2.63,0.4,7.04,0.34,7.2-0.99"/>
	<path class="st11" d="M348.21,196.85c0,0,2.21,2.22,4.02,2.22c1.82,0,5.37-3.23,5.37-3.23"/>
	<path class="st11" d="M288.82,187.76c2.22,0.61,8.88,0.4,10.7,0"/>
	<path class="st11" d="M311.45,189.11c2.22,0.61,8.88,0.4,10.7,0"/>
	<path class="st11" d="M328.89,214.12c2.22,0.61,8.88,0.4,10.7,0"/>
	<path class="st11" d="M311.45,205.01c2.22,0.61,8.88,0.4,10.7,0"/>
	<path class="st11" d="M347.55,224.75c1.82,0.66,0.83,0.36,9.34,0"/>
	<path class="st11" d="M346.9,218.15c2.22,0.61,8.88,0.4,10.7,0"/>
	<path class="st11" d="M329.75,189.11c2.22,0.61,8.88,0.4,10.7,0"/>
	<path class="st11" d="M286.87,203.78c3.13,0.34,12.52,0.23,15.08,0"/>
	<path class="st11" d="M290.84,233.9c5.93-2.23,14.51-2.61,14.98-2.1c1.68,1.8,2.82,5.1,1.85,7.8c-1.24,3.47-6.25,12.64-5.73,13.38"
		/>
	<path class="st11" d="M305.82,231.8c6.94-1.72,18.2,1.6,18.2,1.6s2.58-0.25,11.08,3.47c8.49,3.72,12.8,7.26,13.54,7.93
		c0.76,0.69,4.12,2.73,5.61,5.21"/>
	<path class="st11" d="M325.42,233.54c0,0-3.81,19.93,0,26.37"/>
	<path class="st11" d="M294.18,269.32c0,0,5.29-1.49,13.85,0c8.57,1.49,31.36,8.42,36.31,9.17"/>
	<path class="st11" d="M322.15,265.36c0,0,2.36,18.09,4.22,20.32"/>
	<path class="st11" d="M309.9,287.9c0,0,31.52,6.46,34.44,6.22"/>
	<path class="st11" d="M349.3,287.9c0,0-14.01,23.54-15.05,26.76c-1.05,3.22-7.18,20.07-5.35,25.02c1.82,4.95,6.21,9.23,6.21,9.23"
		/>
	<path class="st11" d="M348.21,314.41c0,0-27.27,5.2-28.95,6.94"/>
	<path class="st11" d="M350.29,323.83c0,0-37.89,14.12-44.46,21.06"/>
	<path class="st11" d="M303.53,305.23c0,0,11.25,13.39,13.27,18.59c2.02,5.2,6.94,13.38,5.35,18.58"/>
	<path class="st11" d="M269.26,278.33c0,0-0.36,1.49-3.78,1.65c-3.42,0.16-6.52-1.65-6.52-1.65"/>
	<path class="st11" d="M278.1,293.01c0,0-5.12,5.86-7.08,6.35c-1.95,0.49-5.51-1.3-6.91-2.93c-1.4-1.63-3.36-2.93-3.68-6.19
		c-0.33-3.26-0.16-6.52,0.49-6.84"/>
	<path class="st11" d="M285.68,298.38c0,0-1.63,3.6-3.58,6.85s-1.97,5.86-4,5.69c-2.03-0.16-1.86-0.33-4.31-2.93
		c-2.44-2.61-3.42-5.05-3.42-5.05l-0.58-1.62"/>
	<path class="st11" d="M297.44,304.24c-0.19,0.82,1.11,3.59-1.49,9.45c-2.61,5.86-5.86,7.65-5.86,7.65"/>
	<path class="st11" d="M303.51,142.34"/>
	<path class="st11" d="M296.23,140.9"/>
	<path class="st11" d="M320.67,133.75"/>
	<path class="st11" d="M319.37,134.28c-0.29-0.68,4-3.42,6.11,0.36"/>
	<path class="st11" d="M334.26,148.49c-0.29-0.68,4-3.42,6.11,0.36"/>
	<path class="st11" d="M349.21,180.8c-0.29-0.68,4-3.42,6.11,0.36"/>
	<path class="st11" d="M296.23,140.9c-0.29-0.68,4.88-3.09,6.99,0.7"/>
</g>
<line class="st12" x1="50.66" y1="351" x2="586.42" y2="351"/>
<g>
	<rect x="580.58" y="24.29" class="st0" width="169.42" height="140.89"/>
	<text transform="matrix(1 0 0 1 622.4694 39.2847)"><tspan x="0" y="0" class="st1 st2 st3">Membrana </tspan><tspan x="-25.52" y="25.71" class="st1 st2 st3">interdigital entre </tspan><tspan x="-19.19" y="51.42" class="st1 st2 st3">dedos II y III (se </tspan><tspan x="-13.52" y="77.13" class="st1 st2 st3">desconoce su </tspan><tspan x="9.55" y="102.84" class="st1 st2 st3">función)</tspan></text>
</g>
<g>
	<g>
		<polyline class="st4" points="575.36,47.41 487.77,47.41 487.77,67.53 		"/>
		<g>
			<polygon class="st7" points="482.65,63.65 487.77,65.82 492.88,63.65 487.77,75.77 			"/>
		</g>
	</g>
</g>
</svg>
